<svg xmlns="http://www.w3.org/2000/svg" width="31.7971" height="29.7383" viewBox="0 0 31.7971 29.7383">
  <path d="M29.2236,0H21.5031V6.00485H18.8724V0H11.1519V10.3512H8.52117V0H0V29.7383H8.52117V15.727H11.1519V29.7383h4.0032c2.2876,0,3.7173-1.6013,3.7173-4.232V24.3625c-3.8889-.3431-4.8039-2.2875-4.8039-6.062V13.4966c0-1.7157-1.4297-1.7157-1.4297-2.116h1.4297a1.8357,1.8357,0,0,1,1.9444,1.8301v5.0898c0,3.0882.6863,4.6323,2.8595,5.0898V12.5244c0-1.7157-1.4297-1.7157-1.4297-2.116h5.4901c0,.4003-1.4297.4003-1.4297,2.116V23.3331c2.1732-.4003,2.8594-2.0016,2.8594-5.0898V13.1535a1.83579,1.83579,0,0,1,1.9445-1.8301h1.4297c0,.4004-1.4297.4004-1.4297,2.116v4.8039c0,3.8317-.9151,5.7761-4.8039,6.062v1.3154c0,2.8594,1.8872,4.1176,3.7173,4.1176h6.5767V24.3625H29.1664V10.3512h2.6307V6.00485H29.1664V0Z" style="fill: #017c90"/>
</svg>
