<?xml version="1.0" encoding="UTF-8" standalone="no"?>
<svg version="1.1" xmlns="http://www.w3.org/2000/svg" xmlns:xlink="http://www.w3.org/1999/xlink">
    <symbol viewBox="0 0 20 20" id="arrow-down">
        <path d="M5 7L10 12L15 7" fill="none" stroke-width="1.67" stroke-linecap="round" stroke-linejoin="round"/>
    </symbol>
    <symbol viewBox="0 0 18.33591 18.33124" id="checked">
        <path d="M9.17185,18.33124A9.16669,9.16669,0,1,1,12.89939.79169a.835.835,0,0,1-.67969,1.52539A7.49827,7.49827,0,0,0,2.8779,13.24823,7.49821,7.49821,0,0,0,16.666,9.17059V8.40448a.835.835,0,1,1,1.66992,0v.7666a9.154,9.154,0,0,1-9.16406,9.16016Zm.58691-6.89551,8.333-8.34131a.8352.8352,0,0,0-1.18164-1.18066l-7.74268,7.751L7.25827,7.75555A.83486.83486,0,0,0,6.07761,8.93622l2.5,2.50049a.83519.83519,0,0,0,1.18115-.001Z"/>
    </symbol>
    <symbol viewBox="0 0 18.33591 18.33124" id="magnifier">
        <path d="M7.50167,14.1683A6.66665,6.66665,0,1,0,.835,7.50167,6.66656,6.66656,0,0,0,7.50167,14.1683ZM15.835,15.835,12.21,12.21" style="fill: none;stroke: #5a5a5a;stroke-linecap: round;stroke-linejoin: round;stroke-width: 1.6699999570846558px"/>
    </symbol>
    <symbol viewBox="0 0 20 20" id="arrow-right">
        <path d="M4.16406 10H15.8307" fill="none" stroke-width="1.67" stroke-linecap="round" stroke-linejoin="round"/>
        <path d="M10 4.16602L15.8333 9.99935L10 15.8327" fill="none" stroke-width="1.67" stroke-linecap="round" stroke-linejoin="round"/>
    </symbol>

    <symbol viewBox="0 0 20 20" id="enter">
        <path fill="none" d="M12.5 2.5H15.8333C16.2754 2.5 16.6993 2.67559 17.0118 2.98816C17.3244 3.30072 17.5 3.72464 17.5 4.16667V15.8333C17.5 16.2754 17.3244 16.6993 17.0118 17.0118C16.6993 17.3244 16.2754 17.5 15.8333 17.5H12.5" stroke-width="1.67" stroke-linecap="round" stroke-linejoin="round"/>
        <path fill="none" d="M8.33337 14.1666L12.5 9.99992L8.33337 5.83325" stroke-width="1.67" stroke-linecap="round" stroke-linejoin="round"/>
        <path fill="none" d="M12.5 10H2.5" stroke-width="1.67" stroke-linecap="round" stroke-linejoin="round"/>
    </symbol>
    
    <symbol viewBox="0 0 40 40" id="social-fb">
        <path d="M20,0A20,20,0,1,0,40,20,20,20,0,0,0,20,0Zm2.0846,20.8785V31.7596h-4.502V20.8789H15.3333V17.1293h2.2493V14.878c0-3.059,1.27-4.878,4.8784-4.878h3.0041v3.7501H23.5873c-1.4046,0-1.4976.524-1.4976,1.502l-.0051,1.8767h3.4017l-.398,3.7497Z"/>
    </symbol>
    <symbol viewBox="0 0 40 40" id="social-in">
        <path fill-rule="evenodd" clip-rule="evenodd" d="M20 0C8.9543 0 0 8.9543 0 20C0 31.0457 8.9543 40 20 40C31.0457 40 40 31.0457 40 20C40 8.9543 31.0457 0 20 0ZM9.60135 16.5649H14.1338V30.183H9.60135V16.5649ZM14.4323 12.3522C14.4029 11.017 13.448 10 11.8975 10C10.347 10 9.33333 11.017 9.33333 12.3522C9.33333 13.6598 10.317 14.7061 11.8387 14.7061H11.8677C13.448 14.7061 14.4323 13.6598 14.4323 12.3522ZM25.2609 16.2451C28.2435 16.2451 30.4795 18.1919 30.4795 22.3748L30.4793 30.183H25.9471V22.8973C25.9471 21.0673 25.2912 19.8185 23.6504 19.8185C22.3982 19.8185 21.6524 20.6604 21.3248 21.4735C21.205 21.7649 21.1756 22.1709 21.1756 22.5779V30.1833H16.6426C16.6426 30.1833 16.7023 17.8431 16.6426 16.5652H21.1756V18.4941C21.7771 17.5669 22.8545 16.2451 25.2609 16.2451Z"/>
    </symbol>
    <symbol viewBox="0 0 40 40" id="social-yt">
        <path fill-rule="evenodd" clip-rule="evenodd" d="M20 0C8.9543 0 0 8.9543 0 20C0 31.0457 8.9543 40 20 40C31.0457 40 40 31.0457 40 20C40 8.9543 31.0457 0 20 0ZM28.3347 13.1244C29.2526 13.3763 29.9755 14.1185 30.2208 15.061C30.6667 16.7692 30.6667 20.3333 30.6667 20.3333C30.6667 20.3333 30.6667 23.8973 30.2208 25.6056C29.9755 26.5482 29.2526 27.2903 28.3347 27.5423C26.6712 28 20 28 20 28C20 28 13.3288 28 11.6652 27.5423C10.7473 27.2903 10.0244 26.5482 9.77903 25.6056C9.33333 23.8973 9.33333 20.3333 9.33333 20.3333C9.33333 20.3333 9.33333 16.7692 9.77903 15.061C10.0244 14.1185 10.7473 13.3763 11.6652 13.1244C13.3288 12.6667 20 12.6667 20 12.6667C20 12.6667 26.6712 12.6667 28.3347 13.1244Z"/>
        <path d="M18 23.9999V17.3333L23.3333 20.6667L18 23.9999Z"/>
    </symbol>
    <symbol viewBox="0 0 40 40" id="social-vk">
        <path fill-rule="evenodd" clip-rule="evenodd" d="M20 0C8.9543 0 0 8.9543 0 20C0 31.0457 8.9543 40 20 40C31.0457 40 40 31.0457 40 20C40 8.9543 31.0457 0 20 0ZM21.6284 26.3135C21.4312 26.5214 21.0462 26.5634 21.0462 26.5634H19.7712C19.7712 26.5634 16.9581 26.7293 14.48 24.1975C11.7776 21.4352 9.39128 15.9546 9.39128 15.9546C9.39128 15.9546 9.25355 15.5951 9.40276 15.422C9.57075 15.2264 10.0288 15.2141 10.0288 15.2141L13.0766 15.1946C13.0766 15.1946 13.3636 15.2407 13.5691 15.3893C13.7392 15.5122 13.8341 15.7406 13.8341 15.7406C13.8341 15.7406 14.3266 16.9635 14.9788 18.0696C16.2528 20.2297 16.8454 20.7018 17.2774 20.4704C17.9076 20.1334 17.7188 17.4172 17.7188 17.4172C17.7188 17.4172 17.7302 16.4319 17.4016 15.9925C17.147 15.6525 16.667 15.5531 16.4552 15.5255C16.283 15.5029 16.5648 15.1117 16.9299 14.9365C17.4788 14.6733 18.4471 14.658 19.5917 14.6692C20.4838 14.6784 20.7405 14.7327 21.089 14.8157C21.8978 15.0073 21.8726 15.6213 21.8181 16.9464C21.8018 17.3427 21.7829 17.8026 21.7829 18.3339C21.7829 18.4532 21.7793 18.5805 21.7757 18.7114C21.7568 19.3903 21.7351 20.1677 22.1908 20.4571C22.4246 20.6045 22.9953 20.4786 24.4237 18.0983C25.1009 16.9696 25.608 15.6433 25.608 15.6433C25.608 15.6433 25.7197 15.4067 25.8918 15.3053C26.0682 15.2018 26.3061 15.2336 26.3061 15.2336L29.5135 15.2141C29.5135 15.2141 30.4776 15.1004 30.6331 15.5285C30.7969 15.9761 30.2731 17.0229 28.9626 18.7374C27.7195 20.3642 27.1145 20.9632 27.17 21.4929C27.2106 21.88 27.6038 22.2301 28.3585 22.9172C29.9338 24.3529 30.3561 25.1082 30.4575 25.2897C30.4659 25.3048 30.4721 25.3159 30.4766 25.3231C31.183 26.4733 29.693 26.5634 29.693 26.5634L26.8434 26.6023C26.8434 26.6023 26.232 26.7211 25.4265 26.1783C25.0045 25.8942 24.5922 25.4302 24.1995 24.9882C23.5997 24.3132 23.0456 23.6896 22.5727 23.8369C21.7787 24.0848 21.8027 25.7635 21.8027 25.7635C21.8027 25.7635 21.809 26.123 21.6284 26.3135Z"/>
    </symbol>
    <symbol viewBox="0 0 40 40" id="social-ig">
        <path fill-rule="evenodd" clip-rule="evenodd" d="M20 0C8.9543 0 0 8.9543 0 20C0 31.0457 8.9543 40 20 40C31.0457 40 40 31.0457 40 20C40 8.9543 31.0457 0 20 0ZM15.6027 9.39778C16.7405 9.346 17.1041 9.33333 20.001 9.33333H19.9977C22.8955 9.33333 23.2577 9.346 24.3955 9.39778C25.5311 9.44978 26.3066 9.62956 26.9866 9.89334C27.6889 10.1656 28.2822 10.53 28.8755 11.1234C29.4689 11.7162 29.8333 12.3114 30.1067 13.0129C30.3689 13.6912 30.5489 14.4663 30.6022 15.6018C30.6533 16.7396 30.6667 17.1032 30.6667 20.0001C30.6667 22.897 30.6533 23.2597 30.6022 24.3975C30.5489 25.5326 30.3689 26.308 30.1067 26.9864C29.8333 27.6877 29.4689 28.2829 28.8755 28.8758C28.2829 29.4691 27.6886 29.8344 26.9873 30.1069C26.3086 30.3707 25.5326 30.5504 24.397 30.6024C23.2593 30.6542 22.8968 30.6669 19.9997 30.6669C17.103 30.6669 16.7396 30.6542 15.6018 30.6024C14.4665 30.5504 13.6912 30.3707 13.0125 30.1069C12.3114 29.8344 11.7162 29.4691 11.1236 28.8758C10.5305 28.2829 10.166 27.6877 9.89334 26.9862C9.62978 26.308 9.45 25.5328 9.39778 24.3973C9.34622 23.2595 9.33333 22.897 9.33333 20.0001C9.33333 17.1032 9.34667 16.7394 9.39756 15.6016C9.44867 14.4665 9.62867 13.6912 9.89312 13.0127C10.1665 12.3114 10.5309 11.7162 11.1242 11.1234C11.7171 10.5302 12.3123 10.1658 13.0138 9.89334C13.692 9.62956 14.4672 9.44978 15.6027 9.39778Z"/>
        <path fill-rule="evenodd" clip-rule="evenodd" d="M19.0441 11.2556C19.2299 11.2553 19.4298 11.2554 19.6455 11.2555L20.001 11.2556C22.849 11.2556 23.1866 11.2658 24.3113 11.3169C25.3513 11.3645 25.9157 11.5383 26.2917 11.6843C26.7895 11.8776 27.1444 12.1087 27.5175 12.4821C27.8909 12.8554 28.122 13.211 28.3158 13.7087C28.4618 14.0843 28.6358 14.6487 28.6831 15.6888C28.7342 16.8132 28.7453 17.151 28.7453 19.9977C28.7453 22.8444 28.7342 23.1822 28.6831 24.3066C28.6355 25.3466 28.4618 25.9111 28.3158 26.2866C28.1224 26.7844 27.8909 27.1389 27.5175 27.512C27.1442 27.8853 26.7897 28.1164 26.2917 28.3098C25.9162 28.4564 25.3513 28.6298 24.3113 28.6773C23.1868 28.7284 22.849 28.7396 20.001 28.7396C17.1528 28.7396 16.8152 28.7284 15.6907 28.6773C14.6507 28.6293 14.0863 28.4556 13.7101 28.3096C13.2123 28.1162 12.8567 27.8851 12.4834 27.5118C12.11 27.1384 11.8789 26.7838 11.6851 26.2858C11.5391 25.9102 11.3651 25.3457 11.3178 24.3057C11.2667 23.1813 11.2565 22.8435 11.2565 19.995C11.2565 17.1465 11.2667 16.8105 11.3178 15.6861C11.3654 14.6461 11.5391 14.0816 11.6851 13.7056C11.8785 13.2078 12.11 12.8523 12.4834 12.4789C12.8567 12.1056 13.2123 11.8745 13.7101 11.6807C14.0861 11.534 14.6507 11.3607 15.6907 11.3129C16.6747 11.2685 17.0561 11.2552 19.0441 11.2529V11.2556ZM25.6948 13.0267C24.9882 13.0267 24.4148 13.5994 24.4148 14.3063C24.4148 15.013 24.9882 15.5863 25.6948 15.5863C26.4015 15.5863 26.9749 15.013 26.9749 14.3063C26.9749 13.5996 26.4015 13.0263 25.6948 13.0263V13.0267ZM14.5232 20.0001C14.5232 16.9751 16.9757 14.5224 20.0008 14.5223C23.0259 14.5223 25.4779 16.975 25.4779 20.0001C25.4779 23.0253 23.0261 25.4769 20.001 25.4769C16.9759 25.4769 14.5232 23.0253 14.5232 20.0001Z"/>
        <path d="M20.001 16.4446C21.9646 16.4446 23.5566 18.0364 23.5566 20.0002C23.5566 21.9637 21.9646 23.5558 20.001 23.5558C18.0372 23.5558 16.4454 21.9637 16.4454 20.0002C16.4454 18.0364 18.0372 16.4446 20.001 16.4446Z"/>
    </symbol>
    <symbol viewBox="0 0 40 40" id="social-vk">
        <path fill-rule="evenodd" clip-rule="evenodd" d="M20 0C8.9543 0 0 8.9543 0 20C0 31.0457 8.9543 40 20 40C31.0457 40 40 31.0457 40 20C40 8.9543 31.0457 0 20 0ZM21.6284 26.3135C21.4312 26.5214 21.0462 26.5634 21.0462 26.5634H19.7712C19.7712 26.5634 16.9581 26.7293 14.48 24.1975C11.7776 21.4352 9.39128 15.9546 9.39128 15.9546C9.39128 15.9546 9.25355 15.5951 9.40276 15.422C9.57075 15.2264 10.0288 15.2141 10.0288 15.2141L13.0766 15.1946C13.0766 15.1946 13.3636 15.2407 13.5691 15.3893C13.7392 15.5122 13.8341 15.7406 13.8341 15.7406C13.8341 15.7406 14.3266 16.9635 14.9788 18.0696C16.2528 20.2297 16.8454 20.7018 17.2774 20.4704C17.9076 20.1334 17.7188 17.4172 17.7188 17.4172C17.7188 17.4172 17.7302 16.4319 17.4016 15.9925C17.147 15.6525 16.667 15.5531 16.4552 15.5255C16.283 15.5029 16.5648 15.1117 16.9299 14.9365C17.4788 14.6733 18.4471 14.658 19.5917 14.6692C20.4838 14.6784 20.7405 14.7327 21.089 14.8157C21.8978 15.0073 21.8726 15.6213 21.8181 16.9464C21.8018 17.3427 21.7829 17.8026 21.7829 18.3339C21.7829 18.4532 21.7793 18.5805 21.7757 18.7114C21.7568 19.3903 21.7351 20.1677 22.1908 20.4571C22.4246 20.6045 22.9953 20.4786 24.4237 18.0983C25.1009 16.9696 25.608 15.6433 25.608 15.6433C25.608 15.6433 25.7197 15.4067 25.8918 15.3053C26.0682 15.2018 26.3061 15.2336 26.3061 15.2336L29.5135 15.2141C29.5135 15.2141 30.4776 15.1004 30.6331 15.5285C30.7969 15.9761 30.2731 17.0229 28.9626 18.7374C27.7195 20.3642 27.1145 20.9632 27.17 21.4929C27.2106 21.88 27.6038 22.2301 28.3585 22.9172C29.9338 24.3529 30.3561 25.1082 30.4575 25.2897C30.4659 25.3048 30.4721 25.3159 30.4766 25.3231C31.183 26.4733 29.693 26.5634 29.693 26.5634L26.8434 26.6023C26.8434 26.6023 26.232 26.7211 25.4265 26.1783C25.0045 25.8942 24.5922 25.4302 24.1995 24.9882C23.5997 24.3132 23.0456 23.6896 22.5727 23.8369C21.7787 24.0848 21.8027 25.7635 21.8027 25.7635C21.8027 25.7635 21.809 26.123 21.6284 26.3135Z"/>
    </symbol>
    <symbol viewBox="0 0 40 40" id="social-tg">
        <path fill-rule="evenodd" clip-rule="evenodd" d="M0 20C0 31.0457 8.9543 40 20 40C31.0457 40 40 31.0457 40 20C40 8.9543 31.0457 0 20 0C8.9543 0 0 8.9543 0 20ZM16.3333 29.1667L16.6736 24.0685L16.6733 24.0683L25.9474 15.6992C26.3545 15.3379 25.8586 15.1618 25.3182 15.4894L13.8727 22.7103L8.9289 21.1672C7.86125 20.8403 7.85358 20.1067 9.1686 19.5792L28.4336 12.1507C29.3135 11.7513 30.1627 12.3621 29.8268 13.7088L26.546 29.1693C26.3169 30.2679 25.6531 30.5307 24.7333 30.0232L19.7356 26.3308L17.3333 28.6667C17.3258 28.674 17.3182 28.6814 17.3107 28.6887C17.042 28.9502 16.8198 29.1667 16.3333 29.1667Z"/>
    </symbol>
</svg>