<svg width="68" height="36" viewBox="0 0 68 36" fill="none" xmlns="http://www.w3.org/2000/svg">
<path d="M39.4632 10.8516V22.4609H45.4681V24.8629H36.375V10.8516H39.4632Z" fill="#017C90"/>
<path d="M51.0132 23.2053C52.2142 23.2053 52.7861 22.1187 52.7861 20.7461V20.2314H52.2714C50.4985 20.2314 49.5835 20.9177 49.5835 21.8327C49.5835 22.6334 50.1554 23.2053 51.0132 23.2053ZM54.5018 15.7707C55.1309 16.3426 55.474 17.1432 55.474 18.3442V21.9471C55.474 23.1481 55.5312 24.1203 55.7027 24.8638H53.1292C53.072 24.635 53.072 24.4062 53.072 24.2347C53.072 24.0631 53.072 23.8344 53.072 23.5484C52.3858 24.5206 51.5279 25.1497 50.0982 25.1497C49.5263 25.1497 48.7829 25.0925 48.211 24.8066C47.4103 24.3491 46.7812 23.3768 46.7812 22.3474C46.7812 20.9177 47.4675 20.0027 48.4397 19.4308C49.4691 18.8589 50.7845 18.6873 52.2714 18.6873H52.7289V18.287C52.7289 17.1432 52.2714 16.5713 51.2992 16.5713C50.7845 16.5713 50.3842 16.8001 50.1554 17.2576C50.041 17.4864 50.041 17.7151 50.041 18.0011H47.2388C47.296 15.7135 49.1832 14.9129 51.2992 14.9129C52.5573 14.7413 53.7583 15.0844 54.5018 15.7707Z" fill="#017C90"/>
<path d="M62.7905 23.1472C64.0486 23.1472 64.7921 22.0606 64.7921 20.1734C64.7921 18.0002 64.0486 16.8564 62.6761 16.8564C61.4179 16.8564 60.5601 17.7714 60.5601 19.8874C60.5601 21.4887 61.0748 23.1472 62.7905 23.1472ZM60.6745 10.8516V16.2273C61.2463 15.4267 62.1614 14.912 63.4767 14.912C66.2218 14.912 67.7087 17.2567 67.7087 20.1162C67.7087 22.9184 66.3362 25.0916 63.5911 25.0916C62.2186 25.0916 61.2463 24.5197 60.6745 23.5475C60.6745 23.8335 60.6173 24.291 60.5601 24.9201H57.7578V10.9088H60.6745V10.8516Z" fill="#017C90"/>
<path d="M29.2236 0.5H21.5031V6.50485H18.8724V0.5H11.1519V8.96398V10.8512H8.52117V0.5H0V30.2383H8.52117V16.227H11.1519V21.2024V24.4622V30.2383H15.1551C17.4427 30.2383 18.8724 28.637 18.8724 26.0063V24.8625C14.9835 24.5194 14.0685 22.575 14.0685 18.8005V13.9966C14.0685 12.2809 12.6388 12.2809 12.6388 11.8806H14.0685C15.2695 11.8806 16.0129 12.7385 16.0129 13.7107V15.2548V18.8005C16.0129 21.8887 16.6992 23.4328 18.8724 23.8903V23.4328V14.3397V13.0244C18.8724 11.3087 17.4427 11.3087 17.4427 10.9084H18.8724H21.5031H22.9328C22.9328 11.3087 21.5031 11.3087 21.5031 13.0244V14.3397V23.4328V23.8331C23.6763 23.4328 24.3625 21.8315 24.3625 18.7433V15.1976V13.6535C24.3625 12.6813 25.106 11.8234 26.307 11.8234H27.7367C27.7367 12.2238 26.307 12.2238 26.307 13.9394V18.7433C26.307 22.575 25.3919 24.5194 21.5031 24.8053V26.1207C21.5031 28.9801 23.3903 30.2383 25.2204 30.2383H27.8511H29.1664H31.7971V24.8625H29.1664V24.4622V21.2024V10.8512H31.7971V6.50485H29.1664V0.5H29.2236Z" fill="#017C90"/>
<path d="M31.8543 32.8691H0V35.4998H31.8543V32.8691Z" fill="#017C90"/>
</svg>
