<?xml version="1.0" standalone="no"?>
<!DOCTYPE svg PUBLIC "-//W3C//DTD SVG 20010904//EN"
 "http://www.w3.org/TR/2001/REC-SVG-20010904/DTD/svg10.dtd">
<svg version="1.0" xmlns="http://www.w3.org/2000/svg"
 width="1024.000000pt" height="1024.000000pt" viewBox="0 0 1024.000000 1024.000000"
 preserveAspectRatio="xMidYMid meet">
<metadata>
Created by potrace 1.14, written by Peter Selinger 2001-2017
</metadata>
<g transform="translate(0.000000,1024.000000) scale(0.100000,-0.100000)"
fill="#000000" stroke="none">
<path d="M0 5120 l0 -4790 1369 0 c1086 0 1370 3 1373 13 2 6 4 1021 3 2255 0
1233 2 2243 5 2243 3 1 193 2 423 3 l417 1 0 -2258 0 -2257 713 1 c640 1 722
3 812 19 106 19 232 55 253 72 6 6 12 8 12 4 0 -5 36 13 135 68 68 38 111 72
195 156 75 75 110 116 110 129 0 5 4 11 8 13 26 11 149 260 167 338 1 3 9 30
18 60 10 30 20 71 23 90 3 19 10 54 15 76 17 80 23 191 23 449 l1 260 -30 1
c-16 1 -55 4 -85 8 -51 6 -68 8 -135 20 -14 3 -53 10 -88 16 -34 6 -75 15 -92
20 -16 5 -41 11 -55 14 -97 16 -424 156 -460 197 -3 3 -26 20 -52 38 -46 31
-160 139 -203 191 -130 159 -248 442 -289 695 -3 17 -8 44 -11 60 -4 17 -8 53
-10 80 -2 28 -4 50 -5 50 -16 0 -22 233 -26 980 -6 1208 -9 1298 -34 1345 -6
11 -8 20 -5 20 9 0 -56 120 -80 150 -21 25 -82 86 -109 108 -9 7 -51 35 -94
61 -42 26 -87 54 -99 61 -23 15 -47 57 -35 63 19 9 571 -2 612 -12 25 -6 52
-13 61 -16 42 -9 129 -58 184 -102 61 -50 169 -188 159 -204 -3 -5 -1 -9 3 -9
20 0 53 -130 58 -225 2 -41 6 -78 9 -84 4 -5 3 -12 -2 -15 -8 -5 -7 -165 2
-203 2 -13 2 -25 -2 -27 -4 -2 -6 -49 -5 -103 2 -54 3 -102 3 -108 0 -5 -1
-23 -3 -40 -2 -16 0 -40 4 -52 5 -12 5 -24 1 -27 -9 -5 -7 -166 2 -203 2 -13
2 -25 -2 -27 -8 -5 -7 -178 2 -213 2 -13 2 -25 -2 -27 -8 -5 -7 -178 2 -213 2
-13 2 -25 -2 -27 -8 -5 -7 -178 2 -213 2 -13 2 -25 -2 -27 -6 -3 -8 -241 -2
-241 0 0 3 -47 5 -105 7 -135 16 -237 30 -310 2 -14 7 -42 10 -62 4 -32 15
-85 30 -148 2 -8 8 -30 14 -48 5 -18 11 -36 12 -40 8 -33 47 -138 59 -162 5
-11 14 -28 19 -38 38 -77 64 -122 72 -122 5 0 9 -6 9 -13 0 -8 11 -24 25 -37
14 -13 25 -29 25 -36 0 -7 4 -14 10 -16 5 -1 33 -26 62 -54 54 -51 98 -85 153
-116 68 -40 125 -68 125 -62 0 3 10 0 23 -8 18 -12 72 -31 122 -44 6 -1 33 -9
61 -16 l51 -14 -2 1815 c-2 1348 -5 1826 -14 1856 -6 22 -13 47 -16 57 -2 9
-18 46 -35 82 -52 108 -119 168 -334 299 -25 15 -65 60 -61 68 2 3 95 5 207 4
128 0 206 3 210 10 5 7 8 7 8 0 0 -7 23 -10 58 -8 31 2 64 3 72 3 8 0 80 0
160 0 80 0 150 0 155 0 6 0 109 -2 230 -3 124 -2 225 1 233 6 6 5 12 6 12 1 0
-13 343 -12 352 1 5 7 8 6 8 -1 0 -6 15 -10 34 -9 28 2 33 0 28 -13 -10 -26
-40 -51 -119 -98 -191 -113 -266 -202 -313 -374 l-24 -85 0 -1795 -1 -1795 25
4 c14 2 30 4 35 5 6 1 16 5 23 9 6 5 12 6 12 3 0 -3 12 -1 28 5 15 6 36 13 47
15 40 8 152 59 225 103 107 64 182 133 253 233 55 78 118 193 110 202 -4 3 -1
6 5 6 7 0 12 6 12 14 0 8 5 27 11 43 6 15 9 28 8 28 -1 0 3 10 10 23 7 13 14
31 16 40 1 9 8 37 15 62 7 25 14 54 16 65 1 11 9 52 18 90 19 95 27 157 41
345 10 131 11 140 2 140 -4 0 -5 6 0 13 4 6 9 437 10 957 2 823 5 1005 13
1005 1 0 5 11 13 48 2 6 15 38 30 70 37 80 88 145 171 215 31 26 156 97 156
88 0 -3 15 1 34 9 55 23 119 28 396 28 201 -1 265 -4 268 -13 6 -16 -38 -53
-120 -101 -37 -22 -74 -46 -82 -55 -9 -8 -16 -12 -16 -8 0 4 -9 -1 -19 -13
-10 -11 -30 -28 -43 -39 -73 -58 -153 -212 -168 -324 -1 -8 -3 -388 -5 -845
-3 -749 -10 -1189 -20 -1300 -4 -44 -14 -126 -19 -165 -2 -14 -7 -47 -11 -75
-8 -58 -40 -204 -55 -255 -6 -19 -13 -42 -15 -50 -8 -34 -60 -167 -73 -187 -8
-13 -12 -23 -8 -23 13 0 -103 -183 -157 -247 -45 -54 -130 -133 -192 -179 -22
-16 -42 -31 -45 -34 -5 -5 -12 -9 -111 -62 -58 -32 -238 -105 -279 -113 -8 -2
-62 -15 -120 -29 -58 -14 -121 -27 -140 -30 -19 -2 -35 -5 -35 -6 0 -2 -118
-16 -211 -23 -22 -2 -45 -7 -50 -10 -11 -7 -11 -520 0 -612 14 -116 16 -129
32 -194 9 -36 17 -70 18 -76 1 -5 4 -14 8 -20 3 -5 9 -26 13 -45 4 -19 11 -41
15 -50 24 -46 70 -152 70 -160 0 -6 3 -10 8 -10 4 0 16 -19 27 -41 10 -23 25
-44 32 -46 7 -3 13 -10 13 -17 0 -21 126 -157 205 -220 61 -49 205 -138 216
-133 4 1 16 -6 27 -16 11 -10 23 -17 28 -15 5 1 25 -5 44 -14 19 -9 63 -23 97
-32 167 -45 163 -45 1336 -45 l1117 -1 0 865 c0 685 -3 865 -12 866 -7 0 -198
1 -424 1 l-411 0 1 2257 1 2256 423 0 422 0 -2 700 -3 700 -421 0 -421 0 1
967 1 968 -1235 -2 -1235 -3 0 -965 0 -965 -418 0 c-247 0 -421 4 -425 9 -3 5
-5 441 -5 968 l0 958 -1244 0 -1243 0 -2 -1667 -3 -1668 -417 0 c-230 0 -419
2 -419 5 -1 3 -3 750 -4 1660 -2 910 -3 1658 -4 1663 0 4 -617 7 -1371 7
l-1370 0 0 -4790z"/>
</g>
</svg>
